<?xml version="1.0" encoding="UTF-8"?><svg id="Layer_1" xmlns="http://www.w3.org/2000/svg" viewBox="0 0 630.3 184.88"><path d="M232.9,85.35V13h10.54v50.65c5.82-11.8,17.93-18.72,32.72-18.72,22.81,0,40.27,16.67,40.27,40.58s-17.3,41.21-42,41.21-41.52-16.36-41.52-41.37ZM305.72,85.82c0-17.93-12.58-31.14-31.14-31.14s-31.14,13.21-31.14,31.14,12.43,31.14,31.14,31.14,31.14-13.21,31.14-31.14Z" style="fill:#085cfc;"/><path d="M328.32,23.85c0-4.56,3.46-8.02,8.02-8.02s8.02,3.46,8.02,8.02-3.46,8.02-8.02,8.02-8.02-3.46-8.02-8.02ZM331.15,46.97h10.54v77.7h-10.54V46.97Z" style="fill:#085cfc;"/><path d="M356.02,85.82c0-23.59,17.3-40.9,41.84-40.9s41.84,17.3,41.84,40.9-17.3,40.9-41.84,40.9-41.84-17.3-41.84-40.9ZM429,85.82c0-17.93-12.58-31.14-31.14-31.14s-31.14,13.21-31.14,31.14,12.58,31.14,31.14,31.14,31.14-13.21,31.14-31.14Z" style="fill:#085cfc;"/><path d="M450.21,95.26h15.89c.31,10.07,8.02,16.67,22.02,16.67s22.33-6.61,22.33-16.67c0-10.85-11.01-12.58-23.44-14.79-16.04-2.83-34.45-5.98-34.45-29.1,0-18.72,14.16-31.62,35.7-31.62s35.23,12.27,35.86,30.67h-15.26c-.47-9.12-7.55-15.89-20.29-15.89s-20.6,6.92-20.6,16.36c0,10.85,11.17,12.58,23.59,14.79,16.2,2.83,34.6,5.98,34.6,29.1,0,19.66-15.1,31.93-38.06,31.93s-37.43-11.95-37.91-31.46Z" style="fill:#0b2386;"/><path d="M541.28,95.26V19.44h14.94v27.53h42.78v13.68h-42.78v34.6c0,12.27,6.45,17.62,16.2,17.62s16.36-5.19,16.36-17.62v-1.73h14.79v1.73c0,21.08-12.58,31.46-31.14,31.46s-31.14-10.38-31.14-31.46Z" style="fill:#0b2386;"/><path d="M615.36,13h14.94v111.67h-14.94V13Z" style="fill:#0b2386;"/><path d="M241.82,150.53h3.41l6.61,19.35h-3.07l-1.55-4.88h-7.46l-1.57,4.88h-2.94l6.58-19.35ZM240.58,162.5h5.83l-1.94-6.04c-.46-1.44-.9-2.89-.9-3.51h-.13c0,.67-.44,2.06-.9,3.51l-1.96,6.04Z" style="fill:#0b2386;"/><path d="M254.86,165.68v-6.68h-1.65v-2.4h1.65v-3.48h2.79v3.48h3.69v2.4h-3.69v6.4c0,1.6.72,2.22,2.35,2.22.36,0,.7-.03,1.01-.16v2.4c-.36.16-.88.26-1.68.26-2.89,0-4.46-1.47-4.46-4.44Z" style="fill:#0b2386;"/><path d="M272.48,165.68v-6.68h-1.65v-2.4h1.65v-3.48h2.79v3.48h3.69v2.4h-3.69v6.4c0,1.6.72,2.22,2.35,2.22.36,0,.7-.03,1.01-.16v2.4c-.36.16-.88.26-1.68.26-2.89,0-4.46-1.47-4.46-4.44Z" style="fill:#0b2386;"/><path d="M284.73,169.88h-2.79v-19.35h2.79v7.3h.1c.72-1.08,2.14-1.65,3.77-1.65,3.12,0,4.67,2.19,4.67,5.01v8.7h-2.79v-8.41c0-1.68-1.16-2.84-2.71-2.84-1.78,0-3.04,1.16-3.04,2.84v8.41Z" style="fill:#0b2386;"/><path d="M303.47,170.3c-4.28,0-6.79-3.02-6.79-7.07s2.76-7.04,6.76-7.04,6.27,2.97,6.27,7.04c0,.31-.03.77-.1,1.06h-10.01c.34,2.17,1.7,3.54,4.05,3.54,1.7,0,2.94-.46,4-1.55l1.42,1.93c-1.52,1.52-3.23,2.09-5.6,2.09ZM299.6,162.22h7.35c-.15-2.12-1.5-3.59-3.56-3.59-2.17,0-3.51,1.39-3.79,3.59Z" style="fill:#0b2386;"/><path d="M334.79,155.67c-1.26-1.96-3.22-3.02-5.65-3.02-3.95,0-6.76,3.17-6.76,7.56s2.81,7.53,6.76,7.53c2.4,0,4.33-1.06,5.62-3.02l1.88,1.68c-1.7,2.5-4.21,3.9-7.51,3.9-5.73,0-9.65-4.26-9.65-10.09s4.05-10.09,9.65-10.09c3.33,0,5.91,1.42,7.61,3.95l-1.96,1.6Z" style="fill:#0b2386;"/><path d="M345.76,170.3c-4.28,0-6.79-3.02-6.79-7.07s2.76-7.04,6.76-7.04,6.27,2.97,6.27,7.04c0,.31-.03.77-.1,1.06h-10.01c.34,2.17,1.7,3.54,4.05,3.54,1.7,0,2.94-.46,4-1.55l1.42,1.93c-1.52,1.52-3.23,2.09-5.6,2.09ZM341.88,162.22h7.35c-.15-2.12-1.5-3.59-3.56-3.59-2.17,0-3.51,1.39-3.79,3.59Z" style="fill:#0b2386;"/><path d="M355.48,169.88v-13.29h2.48v1.7c.72-1.19,1.99-2.12,4.08-2.12,2.79,0,4.75,2.14,4.75,5.34v8.36h-2.79v-8.41c0-1.68-1.14-2.84-2.68-2.84-1.78,0-3.04,1.16-3.04,2.84v8.41h-2.79Z" style="fill:#0b2386;"/><path d="M371.38,165.68v-6.68h-1.65v-2.4h1.65v-3.48h2.79v3.48h3.69v2.4h-3.69v6.4c0,1.6.72,2.22,2.35,2.22.36,0,.7-.03,1.01-.16v2.4c-.36.16-.88.26-1.68.26-2.89,0-4.46-1.47-4.46-4.44Z" style="fill:#0b2386;"/><path d="M386.67,170.3c-4.28,0-6.79-3.02-6.79-7.07s2.76-7.04,6.76-7.04,6.27,2.97,6.27,7.04c0,.31-.03.77-.1,1.06h-10.01c.34,2.17,1.7,3.54,4.05,3.54,1.7,0,2.94-.46,4-1.55l1.42,1.93c-1.52,1.52-3.23,2.09-5.6,2.09ZM382.8,162.22h7.35c-.15-2.12-1.5-3.59-3.56-3.59-2.17,0-3.51,1.39-3.79,3.59Z" style="fill:#0b2386;"/><path d="M403.31,156.42v2.48c-.41-.13-.9-.15-1.37-.15-1.62,0-2.76.8-2.76,2.61v8.54h-2.79v-13.29h2.48v1.65c.54-1.16,1.5-2.01,3.1-2.01.54,0,1.01.08,1.34.18Z" style="fill:#0b2386;"/><path d="M412.54,163.23c0-4.08,2.76-7.04,6.84-7.04s6.84,2.97,6.84,7.04-2.76,7.07-6.84,7.07-6.84-3.02-6.84-7.07ZM423.41,163.2c0-2.68-1.55-4.57-4.03-4.57s-4.02,1.88-4.02,4.57,1.55,4.62,4.02,4.62,4.03-1.96,4.03-4.62Z" style="fill:#0b2386;"/><path d="M428.45,156.59h1.65v-1.5c0-3.15,1.73-4.72,4.8-4.72.54,0,1.19.05,1.55.15v2.43c-.31-.1-.77-.13-1.11-.13-1.5,0-2.45.75-2.45,2.5v1.26h3.17v2.4h-3.17v10.89h-2.79v-10.89h-1.65v-2.4Z" style="fill:#0b2386;"/><path d="M460.65,163.15c0,4.21-2.81,7.15-7.17,7.15s-7.17-2.94-7.17-7.15v-12.62h2.84v12.85c0,2.58,1.78,4.36,4.33,4.36s4.33-1.78,4.33-4.36v-12.85h2.84v12.62Z" style="fill:#0b2386;"/><path d="M464,168.46c0-1.11.88-1.78,1.83-1.78s1.81.67,1.81,1.78-.85,1.75-1.81,1.75-1.83-.67-1.83-1.75Z" style="fill:#0b2386;"/><path d="M476.29,157.81l3.25,1.94c2.06,1.24,3.48,2.79,3.48,5.19,0,3.25-2.43,5.37-6.17,5.37s-5.83-2.25-6.24-5.01l2.5-.85c.26,1.5,1.47,3.3,3.95,3.3,1.96,0,3.07-1.16,3.07-2.74,0-1.08-.57-2.06-2.12-2.97l-2.97-1.75c-2.01-1.19-3.69-2.35-3.69-5.16s2.06-5,5.6-5c3.23,0,5.13,1.68,5.86,4.51l-2.45.8c-.59-1.96-1.83-2.81-3.54-2.81s-2.66.95-2.66,2.32.72,2.06,2.12,2.86Z" style="fill:#0b2386;"/><path d="M486.22,168.46c0-1.11.88-1.78,1.83-1.78s1.81.67,1.81,1.78-.85,1.75-1.81,1.75-1.83-.67-1.83-1.75Z" style="fill:#0b2386;"/><path d="M505.93,169.88h-7.28v-19.35h6.71c3.38,0,5.65,2.09,5.65,5.06,0,1.83-.93,3.59-2.84,4.23,2.37.7,3.54,2.76,3.54,4.9,0,2.86-2.35,5.16-5.78,5.16ZM501.49,158.89h3.66c1.78,0,3.04-1.32,3.04-2.94s-1.21-2.94-3.15-2.94h-3.56v5.88ZM508.82,164.34c0-1.65-1.26-3.04-3.1-3.04h-4.23v6.12h4.13c1.99,0,3.2-1.37,3.2-3.07Z" style="fill:#0b2386;"/><path d="M514.99,152.75c0-.98.77-1.73,1.81-1.73s1.78.75,1.78,1.73-.77,1.75-1.78,1.75-1.81-.75-1.81-1.75ZM515.4,169.88v-13.29h2.79v13.29h-2.79Z" style="fill:#0b2386;"/><path d="M521.59,163.23c0-4.08,2.76-7.04,6.84-7.04s6.84,2.97,6.84,7.04-2.76,7.07-6.84,7.07-6.84-3.02-6.84-7.07ZM532.45,163.2c0-2.68-1.55-4.57-4.03-4.57s-4.02,1.88-4.02,4.57,1.55,4.62,4.02,4.62,4.03-1.96,4.03-4.62Z" style="fill:#0b2386;"/><path d="M542.47,161.7l1.7.83c1.62.77,2.86,1.78,2.86,3.82,0,2.32-1.81,3.95-4.75,3.95-2.79,0-4.23-1.57-4.77-3.07l2.06-1.29c.28.96,1.24,2.04,2.81,2.04,1.11,0,1.88-.59,1.88-1.63,0-.77-.52-1.26-1.75-1.83l-1.55-.72c-1.6-.75-2.89-1.7-2.89-3.84s1.83-3.77,4.33-3.77,3.92,1.32,4.62,2.97l-1.99,1.16c-.46-1.06-1.32-1.86-2.58-1.86-1.03,0-1.75.57-1.75,1.47,0,.77.52,1.19,1.75,1.78Z" style="fill:#0b2386;"/><path d="M559.82,160.57c-.7-1.13-1.75-1.93-3.43-1.93-2.45,0-3.95,1.88-3.95,4.57s1.5,4.62,3.95,4.62c1.73,0,2.84-.9,3.51-2.06l1.7,1.68c-.98,1.65-2.84,2.86-5.34,2.86-4.03,0-6.63-3.02-6.63-7.07s2.73-7.04,6.73-7.04c2.27,0,4.05.98,5.24,2.66l-1.78,1.73Z" style="fill:#0b2386;"/><path d="M564.22,152.75c0-.98.77-1.73,1.81-1.73s1.78.75,1.78,1.73-.77,1.75-1.78,1.75-1.81-.75-1.81-1.75ZM564.63,169.88v-13.29h2.79v13.29h-2.79Z" style="fill:#0b2386;"/><path d="M577.67,170.3c-4.28,0-6.79-3.02-6.79-7.07s2.76-7.04,6.76-7.04,6.27,2.97,6.27,7.04c0,.31-.03.77-.1,1.06h-10.01c.34,2.17,1.7,3.54,4.05,3.54,1.7,0,2.94-.46,4-1.55l1.42,1.93c-1.52,1.52-3.23,2.09-5.6,2.09ZM573.8,162.22h7.35c-.15-2.12-1.5-3.59-3.56-3.59-2.17,0-3.51,1.39-3.79,3.59Z" style="fill:#0b2386;"/><path d="M587.39,169.88v-13.29h2.48v1.7c.72-1.19,1.99-2.12,4.08-2.12,2.79,0,4.75,2.14,4.75,5.34v8.36h-2.79v-8.41c0-1.68-1.14-2.84-2.68-2.84-1.78,0-3.04,1.16-3.04,2.84v8.41h-2.79Z" style="fill:#0b2386;"/><path d="M612.25,160.57c-.7-1.13-1.75-1.93-3.43-1.93-2.45,0-3.95,1.88-3.95,4.57s1.5,4.62,3.95,4.62c1.73,0,2.84-.9,3.51-2.06l1.7,1.68c-.98,1.65-2.84,2.86-5.34,2.86-4.03,0-6.63-3.02-6.63-7.07s2.73-7.04,6.73-7.04c2.27,0,4.05.98,5.24,2.66l-1.78,1.73Z" style="fill:#0b2386;"/><path d="M622.9,170.3c-4.28,0-6.79-3.02-6.79-7.07s2.76-7.04,6.76-7.04,6.27,2.97,6.27,7.04c0,.31-.03.77-.1,1.06h-10.01c.34,2.17,1.7,3.54,4.05,3.54,1.7,0,2.94-.46,4-1.55l1.42,1.93c-1.52,1.52-3.23,2.09-5.6,2.09ZM619.02,162.22h7.35c-.15-2.12-1.5-3.59-3.56-3.59-2.17,0-3.51,1.39-3.79,3.59Z" style="fill:#0b2386;"/><path d="M44.19,13.59c-2.5,1.49-7,4.64-8.2,5.68,0,0-.02.02-.03.03-.03.02-.06.03-.09.05-.15.12-.3.23-.45.35-.6.47-.68,1.34-.2,1.92l4.73,5.66c.47.56,1.29.64,1.87.19,0,0,.01-.01.02-.02.99-.67,6.44-4.57,7.47-5.2.58-.36.78-1.1.44-1.7l-3.7-6.48c-.38-.66-1.22-.87-1.87-.49Z" style="fill:#0b2386;"/><path d="M67.06,11.97l-1.71-5.75c-.33-1.12-1.53-1.72-2.63-1.34-4.49,1.53-8.82,3.39-12.96,5.56-1.03.54-1.42,1.82-.84,2.83l2.97,5.21c.55.96,1.75,1.3,2.73.79,3.56-1.85,7.28-3.45,11.12-4.77,1.04-.36,1.63-1.46,1.32-2.52Z" style="fill:#00e4ff;"/><path d="M19.07,52.23l-6.41-3.66c-.66-.38-1.5-.14-1.86.53-1.97,3.69-3.69,7.54-5.15,11.5-.26.71.13,1.5.85,1.74l7.01,2.33c.69.23,1.43-.13,1.69-.82,1.26-3.38,2.73-6.67,4.4-9.83.34-.64.12-1.44-.52-1.8Z" style="fill:#0b2386;"/><path d="M165.65,51.8l6.51-3.47c.67-.36.92-1.2.54-1.86-1.51-2.63-3.15-5.19-4.91-7.65-.44-.62-1.31-.74-1.91-.28l-5.88,4.46c-.58.44-.7,1.26-.28,1.85,1.47,2.07,2.85,4.22,4.13,6.43.36.63,1.15.86,1.8.52Z" style="fill:#00e4ff;"/><path d="M91.13,8.73V1.35c-.01-1.28-.9-1.36-1.64-1.35-7.21.21-13.95,1.25-20.65,3.02-.73.19-1.16.96-.94,1.69l2.1,7.08c.21.7.93,1.1,1.63.91,5.83-1.52,11.92-2.43,18.18-2.63.73-.02,1.31-.61,1.31-1.34Z" style="fill:#0b2386;"/><path d="M146.91,18.05c-6.4-4.76-12.75-8.55-20.25-11.55-.7-.28-1.5.08-1.76.8l-1.89,6.17c-.52,1.69-.98,3.4-1.38,5.12-.59,2.54-1.27,5.52-2.03,8.47-6,23.25-7.59,47.6,2.68,69.79,8.45,18.25,37.54,44.57,37.87,44.82l5.89,4.44c.6.46,1.47.33,1.91-.29,1.19-1.68,2.33-3.4,3.41-5.16.4-.65.17-1.5-.49-1.87l-4.79-2.73s.01-.03.01-.03c-.04-.01-.09-.02-.13-.03l-1.51-.86c-.39-.22-29.23-15.97-38.52-39.91-7.31-18.86-1.88-38.71,8.83-57.81,1.95-3.48,7.36-11.09,7.82-11.67l4.57-5.79c.47-.59.36-1.47-.25-1.92Z" style="fill:#2db3ff;"/><path d="M152,21.72c-.58-.49-1.45-.39-1.92.2l-4.58,5.79c-.45.57-2.35,3.19-3.53,5.28-8.48,15.11-14.32,36.15-12.57,53.63.54,5.24,2.84,10.36,4.76,15.29,5.38,13.82,31.33,30.51,31.72,30.73l6.41,3.66c.66.38,1.5.14,1.86-.53,1.97-3.69,3.69-7.54,5.15-11.5.26-.71-.13-1.5-.85-1.74l-7.01-2.33c-.69-.23-33.5-9.87-37.06-26.19-3.95-17.4,3.77-34.33,16.05-46.81,2.17-2.23,7.23-6.03,7.81-6.47l5.88-4.46c.6-.46.72-1.33.24-1.92-3.72-4.59-7.86-8.82-12.38-12.62Z" style="fill:#0b2386;"/><path d="M179.9,66.82l-7.05,2.19c-.7.22-1.09.94-.89,1.65.79,2.88,2.1,11.3,2.59,14.41.18,2.01.29,4.04.32,6.09,0,.1,0,.2,0,.3,0,.73.59,1.32,1.32,1.34l7.38.16c.76.02,1.38-.6,1.38-1.36,0-.2,0-.4,0-.6-.04-2.41-.17-4.79-.39-7.14,0,0,0,0,0,0-.55-3.58-2-12.69-2.95-16.12-.2-.73-.98-1.14-1.7-.92Z" style="fill:#0b2386;"/><path d="M172.37,117.47l7.01,2.33c.72.24,1.5-.16,1.72-.88,1.08-3.61,1.94-7.31,2.58-11.08.13-.75-.4-1.45-1.15-1.55l-7.31-1.01c-.72-.1-1.38.4-1.51,1.11-.55,3.21-1.28,6.35-2.19,9.42-.21.7.17,1.43.86,1.66Z" style="fill:#00e4ff;"/><path d="M173.52,50.87l-6.51,3.47c-7.54,3.53-39.94,15.47-59.62,14.98-16.44-.27-31.5-8.35-45.12-17.36-5.48-3.58-24.04-22.27-24.5-22.83l-4.73-5.66c-.49-.58-1.36-.65-1.93-.15-3.87,3.44-7.44,7.19-10.69,11.23-.47.58-.36,1.44.23,1.9-.1.1-.16.16-.16.16,5.74,4.6,11.74,9.27,17.61,13.64,14.02,10.43,28.47,20.4,43.98,28.49,17.15,9.03,36.22,13.32,55.06,17.17,12.57,2.45,38.25,6.49,38.46,6.52l7.31,1.01c.75.1,1.45-.43,1.53-1.18.18-1.66.31-3.32.4-5,.04-.76-.56-1.4-1.32-1.41l-7.38-.16c-.36,0-27.73-.86-38.53-2.45-14.33-2.18-28.68-5.29-42.14-10.75-20.45-8.7-41.4-24.97-58.11-41.71,9.77,7.86,20.25,14.82,31.51,20.31,9,4.38,18.53,7.77,28.45,9.34,23.3,3.48,61.38.35,74.68-4.15l7.05-2.19c.72-.22,1.13-1.01.88-1.72-1.29-3.75-2.82-7.38-4.57-10.89-.34-.68-1.17-.94-1.84-.58Z" style="fill:#0b79fb;"/><path d="M121.35,4.57c-5.49-1.81-11.2-3.12-17.08-3.87-.1-.01-.2-.01-.29,0-2.08-.28-5.55-.74-8.58-.69-.76.01-1.38.59-1.38,1.35v7.38c0,.57.19,4.15.2,5.23-.18,18.73-4.89,38.72-20.22,50.72-1.61,1.23-3.36,2.38-5.16,3.33-7.87,4.32-16.62,7.38-25.57,7.78-13.25.6-29.99-8.16-30.68-8.39l-7.01-2.33c-.72-.24-1.5.16-1.72.88-1.08,3.61-1.94,7.3-2.58,11.08-.03.18-.02.35.02.52-.05.11-.08.23-.1.35-.16,1.16-.97,5.52-1.08,9.72-.02.76.56,1.4,1.32,1.41l7.38.16c.73.02,52.37.03,73.21-28.2,10.82-14.65,19.01-32.18,23.21-49.97.77.12,1.54.25,2.3.39.03.31.05.62.07.93.91,13.27.66,26.84-2.7,39.69-12.74,48.79-62.8,106.41-63.2,106.92l-4.57,5.79c-.47.59-.36,1.47.25,1.92,6.4,4.76,13.42,8.71,20.93,11.71.7.28,1.5-.08,1.76-.8l2.52-6.94c.06-.16.08-.33.08-.49.05-.13.11-.25.16-.38,6.95-16.84,16.46-39.26,23.63-56.09,4.51-10.78,4.86-9.65,8.61-20.72,7.51-21.97,24.36-79.01,24.61-79.7l2.52-6.94c.26-.71-.12-1.5-.84-1.74Z" style="fill:#2db3ff;"/><path d="M164.29,148.42s-6.04-4.55-6.13-4.59c-.99-.47-8.63-6.99-11.66-9.54-14.53-12.2-30.55-22.91-48.24-29.93-26.18-10.12-54.63-15.18-82.75-13.2-2.75.22-14.13.77-14.13.77-.76-.02-1.38.59-1.38,1.35,0,.2,0,.4,0,.6.04,2.41.17,4.79.39,7.15.07.75.76,1.3,1.51,1.21l7.33-.91c.55-.07,26.13-5.18,38.77-4.68,17.63.82,35.27,4.73,51.7,11.32,8.55,3.54,16.62,8.12,24.17,13.46-.61-.37-1.23-.73-1.86-1.08-32.09-18.12-27.63,21.27-28.2,55.8v7.38c0,.96.72,1.35,1.38,1.35,5.46,0,8.32-.4,13.05-1.31.74-.14,1.15-.96.94-1.69l-2.1-7.08c-.21-.7-12.32-38.67-6.23-51.6,7.06-13.42,23.45,5.53,30.46,12.07,9.17,8.54,23.45,23.69,23.45,23.69.49.58,1.36.65,1.93.15,3.87-3.44,4.6-4.75,7.85-8.78.47-.59.36-1.46-.25-1.92Z" style="fill:#0b2386;"/><path d="M24.81,43.2l-5.89-4.44c-.61-.46-1.47-.33-1.91.29-1.19,1.68-2.33,3.4-3.41,5.16-.4.65-.17,1.5.49,1.88l6.41,3.66c.63.36,34.36,21.2,37.51,34.25,1.25,5.75.2,11.83-2.23,17.12-6.68,14.25-42.99,35.44-42.99,35.44-.67.36-.92,1.2-.54,1.86,1.51,2.63,3.15,5.19,4.91,7.65.44.62,1.31.74,1.91.28,0,0,6.33-4.98,6.39-5.31,6.26-5.11,12.26-10.54,17.78-16.44,10.05-10.96,20.08-25.38,16.79-41.05-3.95-18.78-35.03-40.19-35.21-40.33Z" style="fill:#0b79fb;"/><path d="M26.7,144.16l-5.88,4.46c-.6.46-.72,1.33-.24,1.92,3.72,4.59,7.86,8.82,12.38,12.62.58.49,1.45.39,1.92-.2l4.58-5.79c.45-.57.36-1.39-.19-1.86-3.89-3.3-7.48-6.96-10.71-10.92-.46-.56-1.28-.67-1.86-.23Z" style="fill:#00e4ff;"/><path d="M89.64,174.79c-.79-.03-6.81-.57-7.93-.65-5.06-.66-9.99-1.79-14.73-3.34-.69-.23-1.44.13-1.69.81l-2.52,6.94c-.26.71.12,1.5.84,1.74,5.49,1.81,11.2,3.12,17.08,3.87,0,0,0,0,0,0,1.08.07,7.78.66,8.87.7.76.02,1.38-.59,1.38-1.35v-7.38c0-.73-.57-1.32-1.3-1.34Z" style="fill:#0674f8;"/><path d="M9.58,104.18l-7.33.91c-.75.09-1.24.78-1.17,1.54.71,7.74,2.98,12.48,3.93,15.91,1.29,3.75,2.82,7.38,4.57,10.89.34.68,1.17.94,1.84.58l6.51-3.47c.64-.34.89-1.13.57-1.79-1.47-2.98-2.76-6.06-3.87-9.22-.82-2.98-3.09-11.21-3.57-14.21-.11-.72-.77-1.22-1.49-1.13Z" style="fill:#0b2386;"/><path d="M152.32,161.29l-4.73-5.66c-.47-.56-1.29-.64-1.87-.19,0,0-1.13.85-1.14.86,0,0-3.03,2.28-3.78,2.85-.75.57-2.6,1.82-2.62,1.83-1.37.85-4.92,2.96-7.22,4.33-.01,0-.02,0-.03.01-10.15,4.98-15.93,5.79-20.22,7.23-.69.23-1.08.96-.87,1.66l2.1,7.08c.22.73.99,1.14,1.71.9,4.56-1.51,11.68-2.62,21.02-7.46.1-.03.19-.07.28-.12.19-.11.41-.23.64-.36.09-.05.18-.09.27-.14.02-.01.04-.03.06-.04,2.12-1.16,5.49-2.9,8.25-4.95h0s2.53-1.74,3.1-2.12c3.06-2.09,4.17-3.16,4.17-3.16l-1.44,1.16c.09-.07,2.02-1.71,2.11-1.77.6-.47.68-1.34.2-1.92Z" style="fill:#00e4ff;"/></svg>